<svg xmlns="http://www.w3.org/2000/svg" width="1080" height="1080" viewBox="0 0 1080 1080" version="1.1"><path d="M 118.024 326.601 C 106.655 329.661, 97.775 337.134, 92.597 348 C 89.808 353.854, 89.500 355.444, 89.500 364 C 89.500 372.214, 89.863 374.274, 92.180 379.218 C 95.501 386.304, 102.408 393.816, 108.801 397.295 C 119.351 403.037, 118.752 403, 200.481 403 L 275.541 403 323.416 544.750 C 349.748 622.712, 372.750 689.425, 374.533 693 C 384.417 712.824, 402.111 727.062, 424.500 733.208 C 432.268 735.340, 434.314 735.414, 495 735.760 C 533.432 735.979, 557.115 735.759, 556.500 735.189 C 555.950 734.679, 550.909 732.222, 545.297 729.730 C 496.800 708.187, 451.913 665.162, 428.204 617.493 C 417.672 596.316, 410.924 575.922, 406.529 551.982 C 405.578 546.796, 390.549 500.820, 368.122 434.482 L 331.278 325.500 227.389 325.313 C 138.590 325.154, 122.705 325.341, 118.024 326.601 M 426.599 460.840 C 425.049 463.348, 423.609 483.085, 423.633 501.500 C 423.720 567.978, 444.678 620.821, 488.138 664.142 C 523.438 699.330, 564.662 720.300, 613 727.657 C 627.289 729.832, 662.611 730.115, 678 728.179 C 718.442 723.089, 752.818 709.676, 782.803 687.285 C 792.212 680.259, 809.986 663.172, 818.571 652.899 C 836.735 631.166, 852.362 601.095, 860.352 572.500 C 866.586 550.187, 869 529.922, 869 499.894 L 869 479 746.500 479 L 624 479 624 513.500 L 624 548 698 548 C 738.700 548, 771.997 548.337, 771.993 548.750 C 771.970 551.173, 767.675 566.834, 765.090 573.915 C 759.171 590.133, 750.495 603.324, 737.319 616.135 C 718.321 634.607, 694.995 644.108, 661.500 647.020 C 617.450 650.849, 582.278 638.088, 553.420 607.807 C 531.277 584.573, 519.516 557.185, 515.901 520.443 C 514.534 506.545, 515.246 483.754, 517.461 470.500 C 518.288 465.550, 518.973 461.163, 518.983 460.750 C 519.007 459.711, 427.241 459.800, 426.599 460.840 M 835.816 665.262 C 823.037 681.533, 802.962 699.760, 784 712.306 C 774.621 718.512, 756.449 728.164, 744 733.552 L 739.500 735.500 790.500 735.784 C 845.925 736.092, 850.723 735.763, 860.605 730.975 C 886.621 718.370, 889.296 681.372, 865.381 664.918 C 860.029 661.236, 850.538 657.994, 845.161 658.012 C 841.812 658.023, 841.015 658.642, 835.816 665.262 M 563 754.360 C 550.879 757.660, 539.233 767.734, 534.882 778.683 C 531.583 786.986, 531.577 802.001, 534.870 810.285 C 541.556 827.104, 561.915 838.388, 579.672 835.116 C 607.138 830.056, 621.971 801.728, 610.246 776.726 C 601.983 759.103, 581.388 749.354, 563 754.360 M 724.500 753.680 C 705.797 757.870, 693.488 771.252, 690.499 790.645 C 689.627 796.300, 691.417 805.158, 694.965 812.738 C 702.313 828.442, 720.677 838.174, 737.517 835.290 C 772.359 829.322, 785.213 787.808, 759.544 764.148 C 750.243 755.574, 735.587 751.196, 724.500 753.680" stroke="none" fill="#040404" fill-rule="evenodd"/><path d="M 59.763 14.029 C 38.904 17.558, 21.612 33.356, 17.079 53.028 C 16.380 56.064, 16.045 211.628, 16.036 537.500 C 16.026 940.165, 16.244 1018.327, 17.390 1022.632 C 21.994 1039.924, 36.168 1054.187, 53.932 1059.405 C 58.871 1060.855, 102.862 1060.999, 539.432 1060.988 C 1062.380 1060.975, 1023.738 1061.407, 1035.510 1055.451 C 1047.198 1049.537, 1057.185 1037.580, 1061.261 1024.620 L 1063.500 1017.500 1063.500 537.500 L 1063.500 57.500 1061.285 50.458 C 1056.120 34.044, 1043.619 21.375, 1027 15.714 L 1020.500 13.500 542.500 13.364 C 279.600 13.289, 62.369 13.589, 59.763 14.029 M 118.024 326.601 C 106.655 329.661, 97.775 337.134, 92.597 348 C 89.808 353.854, 89.500 355.444, 89.500 364 C 89.500 372.214, 89.863 374.274, 92.180 379.218 C 95.501 386.304, 102.408 393.816, 108.801 397.295 C 119.351 403.037, 118.752 403, 200.481 403 L 275.541 403 323.416 544.750 C 349.748 622.712, 372.750 689.425, 374.533 693 C 384.417 712.824, 402.111 727.062, 424.500 733.208 C 432.268 735.340, 434.314 735.414, 495 735.760 C 533.432 735.979, 557.115 735.759, 556.500 735.189 C 555.950 734.679, 550.909 732.222, 545.297 729.730 C 496.800 708.187, 451.913 665.162, 428.204 617.493 C 417.672 596.316, 410.924 575.922, 406.529 551.982 C 405.578 546.796, 390.549 500.820, 368.122 434.482 L 331.278 325.500 227.389 325.313 C 138.590 325.154, 122.705 325.341, 118.024 326.601 M 426.599 460.840 C 425.049 463.348, 423.609 483.085, 423.633 501.500 C 423.720 567.978, 444.678 620.821, 488.138 664.142 C 523.438 699.330, 564.662 720.300, 613 727.657 C 627.289 729.832, 662.611 730.115, 678 728.179 C 718.442 723.089, 752.818 709.676, 782.803 687.285 C 792.212 680.259, 809.986 663.172, 818.571 652.899 C 836.735 631.166, 852.362 601.095, 860.352 572.500 C 866.586 550.187, 869 529.922, 869 499.894 L 869 479 746.500 479 L 624 479 624 513.500 L 624 548 698 548 C 738.700 548, 771.997 548.337, 771.993 548.750 C 771.970 551.173, 767.675 566.834, 765.090 573.915 C 759.171 590.133, 750.495 603.324, 737.319 616.135 C 718.321 634.607, 694.995 644.108, 661.500 647.020 C 617.450 650.849, 582.278 638.088, 553.420 607.807 C 531.277 584.573, 519.516 557.185, 515.901 520.443 C 514.534 506.545, 515.246 483.754, 517.461 470.500 C 518.288 465.550, 518.973 461.163, 518.983 460.750 C 519.007 459.711, 427.241 459.800, 426.599 460.840 M 835.816 665.262 C 823.037 681.533, 802.962 699.760, 784 712.306 C 774.621 718.512, 756.449 728.164, 744 733.552 L 739.500 735.500 790.500 735.784 C 845.925 736.092, 850.723 735.763, 860.605 730.975 C 886.621 718.370, 889.296 681.372, 865.381 664.918 C 860.029 661.236, 850.538 657.994, 845.161 658.012 C 841.812 658.023, 841.015 658.642, 835.816 665.262 M 563 754.360 C 550.879 757.660, 539.233 767.734, 534.882 778.683 C 531.583 786.986, 531.577 802.001, 534.870 810.285 C 541.556 827.104, 561.915 838.388, 579.672 835.116 C 607.138 830.056, 621.971 801.728, 610.246 776.726 C 601.983 759.103, 581.388 749.354, 563 754.360 M 724.500 753.680 C 705.797 757.870, 693.488 771.252, 690.499 790.645 C 689.627 796.300, 691.417 805.158, 694.965 812.738 C 702.313 828.442, 720.677 838.174, 737.517 835.290 C 772.359 829.322, 785.213 787.808, 759.544 764.148 C 750.243 755.574, 735.587 751.196, 724.500 753.680" stroke="none" fill="#eccd0d" fill-rule="evenodd"/></svg>